<svg width="765" height="277" viewBox="0 0 765 277" fill="none" xmlns="http://www.w3.org/2000/svg">
<path d="M541.188 276.878C515.467 276.878 494.537 267.8 478.399 249.644C462.26 231.488 454.191 206.146 454.191 173.616C454.191 143.356 462.134 118.77 478.02 99.8577C493.907 80.9452 514.71 71.489 540.431 71.489C553.292 71.489 563.757 73.7585 571.826 78.2975C579.895 82.5843 587.334 89.1406 594.143 97.9664H595.277V0H666.766V270.448H598.682V243.592H597.925C585.065 265.783 566.152 276.878 541.188 276.878ZM561.613 222.789C571.952 222.789 580.4 217.997 586.956 208.415C593.764 198.581 597.169 186.603 597.169 172.481C597.169 158.36 593.764 146.634 586.956 137.304C580.4 127.722 571.952 122.931 561.613 122.931C551.274 122.931 542.827 127.47 536.271 136.548C529.966 145.626 526.814 157.604 526.814 172.481C526.814 187.359 529.966 199.463 536.271 208.793C542.575 218.123 551.022 222.789 561.613 222.789Z" fill="#2B61D1"/>
<path fill-rule="evenodd" clip-rule="evenodd" d="M444.282 191.394H306.6V164.116V153.569H373.171C369.025 153.569 367.013 153.569 362.184 153.569C353.332 153.569 348.459 153.569 339.886 153.569C320.973 153.569 331.201 153.569 306.6 153.569H285.187H236.761C240.216 132.848 250.729 115.07 265.371 100.236C284.535 80.8192 309.247 71.1108 339.507 71.1108C368.002 71.1108 391.706 79.8105 410.618 97.2099C433.817 118.644 445.039 150.039 444.282 191.394Z" fill="#2B61D1"/>
<path fill-rule="evenodd" clip-rule="evenodd" d="M342.155 275.743C310.886 275.743 285.418 266.161 265.749 246.996C250.347 231.794 241.053 213.26 237.869 191.394H306.6C311.139 215.35 323.747 227.327 344.425 227.327C357.033 227.327 365.985 222.536 371.28 212.954H440.5C436.213 231.11 423.983 246.618 403.81 259.479C386.915 270.322 366.363 275.743 342.155 275.743Z" fill="#2B61D1"/>
<path d="M692.629 270.448V77.541H764.118V270.448H692.629Z" fill="#2B61D1"/>
<path d="M692.629 54.0896V0H764.118V54.0896H692.629Z" fill="#171818"/>
<path fill-rule="evenodd" clip-rule="evenodd" d="M392.082 142.654C394.901 149.458 396.351 156.751 396.351 164.116H306.6V153.569H285.187C285.901 149.838 286.995 146.18 288.455 142.654C291.274 135.85 295.405 129.667 300.612 124.459C305.82 119.252 312.003 115.121 318.807 112.302C325.611 109.484 332.904 108.033 340.269 108.033C347.634 108.033 354.926 109.484 361.731 112.302C368.535 115.121 374.717 119.252 379.925 124.459C385.133 129.667 389.264 135.85 392.082 142.654Z" fill="#171818"/>
<path fill-rule="evenodd" clip-rule="evenodd" d="M0.0585938 0L86.6776 270.448H175.188L262.185 0H181.996L145.684 127.092C141.398 142.474 136.985 159.999 132.446 179.668H131.689L118.45 127.092L109.183 95.3187L93 148L99.9163 63.5458L81.3821 0H0.0585938Z" fill="#2B61D1"/>
</svg>
